Love for All and Sharing is the first step to solving all the problems of humanity.

Websites I want to share.

    
http://www.shareintl.org/

    
http://www.lightmiddleway.com


Thank you very much

No credit for me...credit to EVERYONE for sharing
 
http://thepiratebay.org/user/raymondhome/

PLOT
A group of people try to survive when machines start to come alive and become homicidal.

General:
Format : MPEG-4
Duration : 1h 37mn
Overall bit rate : 1 023 Kbps

Video:
ID : 1
Format : AVC
Format/Info : Advanced Video Codec
Format profile : Main@L3.0
Format settings, CABAC : Yes
Format settings, ReFrames : 2 frames
Codec ID : avc1
Codec ID/Info : Advanced Video Coding
Duration : 1h 37mn
Bit rate mode : Variable
Bit rate : 857 Kbps
Width : 702 pixels
Height : 364 pixels
Display aspect ratio : 2.25:1
Frame rate mode : Variable
Frame rate : 23.976 fps
Minimum frame rate : 14.985 fps
Maximum frame rate : 29.970 fps
Resolution : 8 bits
Colorimetry : 4:2:0
Scan type : Progressive
Bits/(Pixel*Frame) : 0.140
Stream size : 599 MiB (84%)
Writing library : x264 core 79

Audio:
ID : 2
Format : AAC
Format/Info : Advanced Audio Codec
Format version : Version 4
Format profile : LC
Format settings, SBR : No
Codec ID : 40
Duration : 1h 37mn
Bit rate mode : Variable
Bit rate : 160 Kbps
Maximum bit rate : 225 Kbps
Channel(s) : 2 channels
Channel positions : Front: L R
Sampling rate : 48.0 KHz
Stream size : 112 MiB (16%)
Language : English

credit BigPerm1828 BIG BIG BIG TIME & to all the people who made it possible for me to share this with everyone...especially EVERYONE involve in the production of the movie...IF YOU LIKE IT...BUY IT :)

*****help what we can with others in need...the world is ONE big family*****